<svg xmlns="http://www.w3.org/2000/svg" xmlns:xlink="http://www.w3.org/1999/xlink" viewBox="0 0 48 48"><path fill="#B0BEC5" d="M40.7 33.2L27 21.5 39.7 9.7 38.3 8.3 25.1 20.6 12.7 7.3 11.3 8.7 23.3 21.6 7.6 28.1 8.4 29.9 23.6 23.7 19.5 40.8 21.5 41.2 25.8 23.1 39.3 34.8z"/><path fill="#4CAF50" d="M35,22c0,5.5-4.5,10-10,10s-10-4.5-10-10s4.5-10,10-10S35,16.5,35,22"/><path fill="#E8F5E9" d="M28.4,24.5c0,2.5-2.4,2.8-2.8,2.8v1.4h-1v-1.4c-0.4,0-3-0.3-3-3.3h2c0,0.3,0,1.7,1.5,1.7c1.3,0,1.3-1,1.3-1.2c0-2.2-4.5-1.3-4.5-4.8c0-2.1,1.9-2.8,2.8-2.8v-1.5h1.1v1.5c0.7,0.1,2.6,0.6,2.6,3.2h-2c0-0.6-0.1-1.7-1.3-1.7C24,18.5,24,19.5,24,19.7C24,21.8,28.4,21,28.4,24.5"/><path fill="#2196F3" d="M16,8.5c0,1.9-1.6,3.5-3.5,3.5S9,10.4,9,8.5S10.6,5,12.5,5S16,6.6,16,8.5z M38.5,6C36.6,6,35,7.6,35,9.5s1.6,3.5,3.5,3.5S42,11.4,42,9.5S40.4,6,38.5,6z M8.5,25C6.6,25,5,26.6,5,28.5S6.6,32,8.5,32s3.5-1.6,3.5-3.5S10.4,25,8.5,25z M21,36c-1.9,0-3.5,1.6-3.5,3.5S19.1,43,21,43s3.5-1.6,3.5-3.5S22.9,36,21,36z M39.5,30c-1.9,0-3.5,1.6-3.5,3.5s1.6,3.5,3.5,3.5s3.5-1.6,3.5-3.5S41.4,30,39.5,30z"/></svg>